<svg version="1.1" xmlns="http://www.w3.org/2000/svg" xmlns:xlink="http://www.w3.org/1999/xlink" width="214.5" height="152"><g transform="translate(-101.5,-103)"><g data-paper-data="{&quot;isPaintingLayer&quot;:true}" fill-rule="nonzero" stroke-linecap="butt" stroke-linejoin="miter" stroke-miterlimit="10" stroke-dasharray="" stroke-dashoffset="0" style="mix-blend-mode: normal"><path d="M174.5,180c0,-36.17465 29.32535,-65.5 65.5,-65.5c36.17465,0 65.5,29.32535 65.5,65.5c0,36.17465 -29.32535,65.5 -65.5,65.5c-36.17465,0 -65.5,-29.32535 -65.5,-65.5z" fill="#cccccc" stroke="none" stroke-width="0"/><path d="M101.5,251.9z" fill="#e9e9e9" stroke="none" stroke-width="0"/><path d="M305,179.5c0,36.03658 -29.21342,65.25 -65.25,65.25c-36.03658,0 -65.25,-29.21342 -65.25,-65.25c0,-36.03658 29.21342,-65.25 65.25,-65.25c36.03658,0 65.25,29.21342 65.25,65.25z" data-paper-data="{&quot;origPos&quot;:null}" fill="none" stroke="#000000" stroke-width="2"/><path d="M315,179c0,41.42136 -33.91443,75 -75.75,75c-41.83557,0 -75.75,-33.57864 -75.75,-75c0,-41.42136 33.91443,-75 75.75,-75c41.83557,0 75.75,33.57864 75.75,75z" fill="none" stroke="#000000" stroke-width="2"/></g></g></svg>